<?xml version="1.0" standalone="no"?>
<!DOCTYPE svg PUBLIC "-//W3C//DTD SVG 20010904//EN"
 "http://www.w3.org/TR/2001/REC-SVG-20010904/DTD/svg10.dtd">
<svg version="1.0" xmlns="http://www.w3.org/2000/svg"
 width="600.000000pt" height="509.000000pt" viewBox="0 0 600.000000 509.000000"
 preserveAspectRatio="xMidYMid meet">
<metadata>
Created by potrace 1.11, written by Peter Selinger 2001-2013
</metadata>
<g transform="translate(0.000000,509.000000) scale(0.100000,-0.100000)"
fill="#000000" stroke="none">
<path d="M3331 4927 c-13 -6 -25 -20 -27 -31 -4 -27 -15 -35 -54 -40 -19 -2
-38 -4 -42 -5 -5 0 -7 -43 -6 -93 1 -87 2 -89 8 -33 5 53 6 56 11 25 6 -35 6
-34 7 8 1 24 -3 52 -8 63 -8 14 -7 19 2 19 12 0 30 -56 63 -200 7 -30 13 -47
14 -37 1 14 11 17 54 19 35 1 42 2 20 5 -28 4 -33 9 -34 31 -2 24 -2 24 -6 5
-2 -13 -7 -23 -11 -23 -4 0 -4 39 0 88 3 48 7 106 7 130 1 60 19 52 24 -10 l3
-53 2 58 2 57 130 0 c72 0 130 -3 130 -7 0 -5 7 -55 15 -113 18 -135 18 -137
-3 -142 -17 -5 -17 -11 7 -112 31 -129 40 -126 11 4 -18 85 -19 113 -5 98 10
-10 53 -195 74 -319 40 -235 52 -374 58 -660 l6 -287 -26 -17 c-15 -9 -24 -22
-20 -30 6 -18 -15 -23 -152 -34 l-110 -10 130 6 c140 5 156 10 183 50 15 24
17 55 16 273 -1 333 -29 604 -94 900 -19 84 -49 302 -50 354 0 17 6 18 78 11
49 -4 82 -12 92 -22 13 -14 13 -15 -2 -10 -10 4 -18 2 -18 -3 0 -6 7 -10 15
-10 18 0 22 -22 40 -260 26 -345 37 -636 37 -1018 1 -275 -2 -376 -11 -385 -7
-7 -53 -15 -104 -18 l-92 -7 98 2 c53 0 97 -2 97 -5 0 -13 -26 -27 -55 -32
-17 -3 2 -3 42 -2 48 2 77 -1 89 -10 16 -11 12 -14 -36 -19 -30 -3 -224 -15
-430 -26 -206 -11 -429 -25 -495 -31 -91 -9 -140 -9 -205 0 -47 6 -152 13
-235 15 -82 2 -123 2 -90 0 33 -2 142 -11 242 -20 151 -14 202 -15 305 -5 67
6 290 20 493 31 204 11 394 24 423 28 l52 9 70 -73 69 -72 -37 -6 c-20 -3
-113 -10 -207 -17 -93 -6 -235 -18 -315 -25 -129 -12 -133 -12 -40 -9 58 3
226 14 374 25 312 22 319 21 355 -52 11 -24 21 -55 21 -69 -1 -21 -3 -20 -21
13 -10 21 -28 42 -38 48 -34 17 -34 11 -2 -19 17 -16 31 -33 31 -38 0 -14
-100 2 -145 23 l-40 19 58 3 c31 2 57 6 57 10 0 4 -39 4 -87 1 -49 -3 -115 -2
-148 2 -139 20 -209 12 -343 -40 -38 -14 -68 -18 -100 -15 -26 3 -120 -1 -209
-9 -183 -15 -191 -19 -227 -97 -19 -42 -21 -67 -24 -373 -3 -212 0 -332 6
-340 7 -8 6 -47 -4 -122 -16 -129 -18 -364 -4 -484 6 -55 6 -89 0 -96 -7 -8
-9 -163 -8 -421 l3 -409 75 -2 c46 -2 86 3 105 11 17 8 98 24 182 37 136 20
158 21 208 9 30 -7 55 -16 55 -20 0 -10 -667 -120 -725 -120 -27 0 -318 27
-645 60 -897 90 -1014 102 -1022 109 -4 3 -8 24 -10 45 -3 43 11 56 35 32 15
-16 225 -42 263 -34 11 3 -22 8 -72 12 -50 4 -106 11 -125 16 l-34 8 37 1 c21
1 56 8 78 17 32 13 42 23 50 53 5 20 9 50 9 66 -1 25 -3 22 -10 -14 -12 -61
-34 -91 -66 -91 -21 0 -24 3 -15 12 7 7 12 16 12 20 0 4 -9 -1 -20 -12 -17
-17 -33 -20 -97 -19 -97 1 -154 16 -78 20 50 2 50 2 -15 8 l-65 6 -3 70 c-4
114 -10 119 -9 7 l2 -103 -35 5 c-19 3 -154 15 -300 27 -206 16 -274 25 -305
40 -22 10 -31 17 -20 15 43 -10 244 -28 256 -24 7 2 -46 10 -117 17 -143 15
-177 27 -238 88 -69 68 -89 127 -97 293 -4 80 -8 204 -8 275 l0 130 19 -24
c17 -20 20 -40 22 -135 l2 -111 3 98 c2 53 6 97 9 97 3 0 24 -16 46 -34 109
-94 280 -88 390 13 117 107 163 270 123 439 -21 88 -49 137 -114 202 -72 72
-132 95 -235 88 -72 -5 -157 -38 -185 -72 -21 -25 -29 -19 -34 22 -3 32 -4 31
-6 -13 -1 -33 -8 -58 -22 -75 l-20 -25 6 200 c10 310 19 387 50 451 29 60 88
111 140 121 25 5 26 7 10 13 -17 7 -15 9 15 19 l35 11 -32 -5 c-18 -2 -33 -2
-33 0 0 3 19 17 42 32 37 25 53 29 152 34 l111 6 -100 1 c-114 2 -156 -12
-223 -72 -21 -20 -42 -36 -46 -36 -29 0 49 90 108 125 23 13 61 27 86 30 25 4
74 14 110 22 42 10 112 16 200 16 74 0 122 3 105 6 -25 6 -19 8 34 14 35 4 77
7 94 7 48 0 14 -30 -37 -31 l-41 -2 35 -6 35 -6 -40 -12 c-22 -7 -69 -14 -104
-17 -50 -3 -68 -9 -80 -25 -12 -15 -30 -21 -71 -24 l-55 -3 58 -2 c56 -2 57
-2 57 -32 0 -29 -1 -29 -63 -33 l-62 -3 63 -2 c48 -2 62 -5 62 -17 0 -11 -13
-15 -47 -17 l-48 -1 44 -4 c30 -3 50 -11 62 -26 17 -22 17 -22 -19 -28 -31 -5
-27 -6 24 -8 34 0 74 -5 90 -10 16 -5 46 -12 66 -16 l38 -6 0 -179 0 -180 -55
0 c-72 0 -106 -30 -104 -94 l2 -41 6 42 c11 64 33 83 98 83 l53 0 -1 -52 c0
-29 -3 -46 -6 -38 -10 27 -46 60 -65 60 -26 0 -58 -18 -58 -32 0 -6 9 -3 19 6
28 25 63 17 80 -19 8 -16 18 -38 23 -47 10 -21 10 -358 1 -742 l-6 -278 -49 4
c-33 4 -57 13 -71 27 -22 21 -22 29 -27 384 l-5 362 -3 -357 -2 -358 28 -31
c23 -26 38 -33 80 -37 l52 -5 -2 -191 -3 -191 -40 -6 -40 -6 48 -2 47 -1 1
273 c1 149 5 580 8 957 6 639 7 685 23 688 16 3 18 -17 21 -275 l2 -278 3 283
c1 155 5 282 9 282 3 0 14 -7 24 -16 17 -15 18 -40 14 -363 l-3 -346 8 324 c5
178 11 328 12 333 2 6 72 -81 156 -193 l152 -203 -20 -21 c-11 -12 -20 -28
-20 -37 0 -8 36 -64 80 -124 50 -68 80 -119 80 -135 0 -49 42 -185 82 -266 26
-54 62 -107 105 -153 35 -38 62 -74 58 -80 -4 -6 6 -10 24 -10 16 0 32 -4 36
-10 3 -5 33 -19 66 -31 33 -12 58 -23 56 -25 -2 -2 -77 3 -168 11 -324 30
-365 24 -420 -63 -40 -63 -37 -76 4 -16 30 45 91 93 103 81 3 -3 -7 -12 -24
-21 -16 -8 -37 -28 -47 -43 l-18 -28 34 31 c36 34 70 54 90 54 6 0 0 -11 -14
-24 -36 -33 -64 -93 -71 -151 -6 -47 -5 -45 12 18 19 71 42 108 84 140 21 16
35 18 96 11 74 -7 89 -19 52 -42 -12 -7 -20 -23 -20 -40 0 -41 35 -125 56
-133 28 -11 149 -10 178 1 25 9 26 13 26 88 0 49 -5 83 -12 91 -11 11 -1 13
57 8 213 -19 320 -20 384 -3 178 46 332 205 397 412 13 41 24 85 23 97 0 12
-9 -11 -19 -52 -59 -222 -207 -388 -394 -437 -80 -21 -98 -15 -30 10 88 33
142 67 199 128 l50 53 -50 -48 c-65 -61 -83 -61 -25 0 40 42 39 41 -18 -10
-98 -89 -222 -137 -351 -137 -62 0 -49 6 29 14 118 12 254 84 335 178 43 51
113 188 120 238 4 25 0 20 -13 -20 -59 -174 -181 -305 -321 -345 -17 -5 -21
-4 -16 5 5 8 3 11 -6 7 -71 -29 -129 -39 -208 -35 -76 4 -94 9 -159 42 -122
65 -224 191 -276 343 -25 74 -39 143 -28 142 13 -1 177 -212 187 -241 12 -37
222 -247 253 -255 13 -3 69 1 125 10 69 11 105 12 114 6 27 -23 145 81 203
181 60 103 82 186 85 325 l3 120 -7 -110 c-8 -120 -19 -182 -32 -190 -4 -3
-29 35 -55 85 -49 96 -195 323 -215 336 -7 4 18 -36 54 -88 37 -53 67 -98 67
-101 0 -3 17 -34 39 -69 46 -76 101 -183 101 -198 0 -5 -17 -11 -37 -12 -37
-1 -37 -1 -5 -5 17 -2 32 -7 32 -11 0 -16 -16 -28 -35 -28 -11 0 -50 -3 -87
-7 -56 -6 -68 -5 -68 7 0 8 6 17 13 19 9 4 9 6 -1 6 -7 1 -15 -6 -18 -14 -4
-8 -10 -15 -14 -15 -4 0 -43 57 -88 127 -103 164 -234 349 -381 536 -64 82
-124 159 -134 172 -17 23 -17 24 5 38 13 8 48 18 78 21 30 4 78 11 105 15 50
9 50 8 88 -33 21 -22 91 -110 154 -194 64 -83 118 -152 120 -152 6 0 -21 37
-162 221 l-125 164 27 8 c28 8 124 3 173 -9 20 -4 22 -3 10 5 -12 8 -8 11 20
11 19 0 42 -4 50 -10 12 -8 12 -10 -4 -16 -15 -6 -9 -12 31 -36 26 -17 75 -55
107 -87 45 -43 52 -47 29 -18 -31 39 -140 127 -158 127 -5 0 1 6 15 13 14 8
32 11 40 8 11 -4 8 -7 -10 -12 -24 -7 -23 -7 6 -8 55 -2 201 -127 243 -209 12
-23 24 -42 26 -42 3 0 -2 15 -11 33 -57 110 -215 249 -299 261 -25 4 -45 11
-45 17 0 5 -9 9 -20 9 -17 0 -18 3 -8 25 9 21 9 29 -4 42 -25 24 -51 9 -46
-27 5 -36 0 -39 -110 -45 l-87 -5 40 19 c65 32 52 45 -50 52 -49 4 -121 7
-160 6 -66 0 -65 -1 25 -7 52 -4 119 -8 148 -9 28 0 52 -4 52 -8 0 -20 -110
-63 -190 -73 -47 -6 -99 -20 -117 -30 l-32 -19 -60 72 -60 72 77 6 77 5 -83 2
c-86 2 -88 3 -134 61 -10 12 -18 24 -18 26 0 3 62 3 138 1 l137 -5 -145 10
c-143 10 -145 10 -173 40 -16 17 -26 33 -23 37 3 3 134 -1 291 -8 157 -7 289
-10 292 -6 4 3 -23 6 -58 7 -35 0 -173 6 -307 13 -206 10 -245 14 -260 29 -15
16 -15 19 -2 27 12 8 9 10 -11 10 -15 0 -32 7 -39 15 -11 13 -6 15 36 16 27 1
41 3 32 6 -22 5 -22 13 -5 38 8 11 39 23 78 31 l64 14 -59 -6 c-75 -7 -78 -8
-98 -44 -10 -18 -25 -30 -38 -30 -25 0 -25 2 3 45 12 19 35 39 52 44 37 12
206 36 375 53 159 16 722 16 845 0 162 -21 257 -23 435 -8 l175 15 -136 -5
c-106 -4 -138 -2 -147 8 -6 8 -13 45 -15 83 -3 65 -4 64 -3 -12 l1 -83 -42 -6
c-55 -8 -73 -1 -73 31 0 14 -7 28 -15 31 -40 16 -42 44 -73 889 -16 451 -27
825 -25 832 3 6 12 14 21 16 15 4 14 5 -1 6 -10 0 -17 7 -14 14 2 7 25 13 63
13 229 6 451 18 459 25 5 5 -101 9 -256 9 -214 0 -269 -3 -285 -14 -17 -13
-19 -27 -19 -153 0 -115 -3 -138 -15 -140 -20 -3 -547 -39 -792 -55 -109 -6
-204 -15 -210 -20 -11 -6 -18 -513 -18 -1304 l0 -42 -65 -12 c-77 -15 -100
-31 -117 -84 -12 -36 -18 -41 -60 -52 -25 -6 -77 -15 -115 -18 -37 -4 -115
-13 -173 -21 -58 -8 -186 -21 -285 -30 -230 -20 -297 -31 -356 -56 -59 -26
-143 -112 -171 -176 -11 -27 -33 -75 -48 -108 -21 -43 -30 -82 -35 -138 -6
-83 -25 -497 -25 -559 l0 -37 -49 6 c-69 8 -97 -2 -126 -44 -47 -71 -24 -210
38 -227 12 -3 46 -6 74 -6 46 0 53 -3 57 -22 3 -13 9 -162 14 -333 8 -285 11
-315 31 -368 12 -31 33 -70 45 -85 12 -15 31 -49 41 -77 24 -65 93 -137 156
-165 56 -24 190 -41 704 -91 171 -16 463 -45 650 -64 187 -19 387 -39 445 -45
58 -5 211 -21 340 -35 273 -29 310 -30 408 -11 63 12 88 12 174 0 150 -21 154
-21 446 31 l272 49 11 33 c6 18 16 34 22 34 7 1 42 3 78 4 40 2 86 12 118 25
l52 23 62 -19 c63 -19 102 -21 362 -11 351 12 444 38 571 159 115 110 182 228
249 441 127 407 108 915 -46 1226 -31 62 -59 102 -113 155 -61 61 -81 75 -146
97 -113 40 -141 50 -185 67 -46 18 -285 29 -324 15 -17 -7 -34 -4 -61 9 -23
12 -70 21 -126 25 -89 6 -164 32 -164 58 0 6 -7 36 -16 65 -21 70 -65 115
-122 125 -37 6 -52 18 -119 91 -42 47 -87 87 -100 90 l-23 6 -1 322 c0 176 -2
353 -4 391 -2 39 -6 142 -10 230 -5 152 -26 487 -41 675 -4 47 -11 93 -16 103
-13 26 -61 43 -141 52 -44 4 -70 12 -74 21 -7 19 -286 20 -322 1z m-606 -349
c2 -7 8 -152 15 -323 6 -170 18 -478 26 -683 9 -206 14 -376 12 -378 -3 -2
-67 1 -144 7 -77 5 -165 8 -195 6 -41 -2 -30 -4 41 -7 52 -2 -44 -7 -215 -11
-268 -6 -423 -15 -590 -34 -37 -4 -38 -4 -10 5 16 5 84 14 150 20 183 16 201
19 78 14 l-113 -4 -2 152 -2 153 -3 -152 c-3 -128 -6 -152 -20 -157 -9 -4 -19
-4 -22 0 -8 8 -14 1237 -6 1292 6 38 9 42 33 42 15 0 68 4 117 9 50 5 161 13
247 17 l158 7 3 -184 2 -184 3 188 c1 146 5 188 15 185 7 -3 14 -34 18 -84 l5
-79 2 82 2 81 73 7 c39 4 124 10 187 14 63 5 119 9 123 10 4 0 9 -5 12 -11z
m10 -1413 c31 -4 35 -3 15 4 -24 9 -24 9 8 10 20 1 31 -3 27 -9 -3 -5 1 -10
10 -10 8 0 18 -8 22 -17 3 -10 14 -26 25 -36 10 -10 18 -25 18 -34 0 -14 -10
-15 -72 -9 -413 37 -759 34 -1133 -9 -66 -7 -122 -12 -123 -10 -6 6 18 74 28
80 10 6 236 32 390 45 112 9 706 5 785 -5z m-1445 -271 c78 -23 84 -32 77
-119 -3 -41 -8 -79 -12 -85 -9 -15 -58 -12 -90 4 -29 15 -49 12 -78 -12 -26
-23 -32 -8 -28 77 3 87 0 93 -66 110 -50 14 -58 26 -10 16 58 -12 97 -26 92
-35 -5 -9 44 -21 91 -23 17 0 41 7 54 16 l24 16 -37 16 c-21 8 -59 18 -85 20
-57 6 -47 1 31 -15 62 -12 71 -24 32 -42 -22 -10 -30 -8 -55 10 -16 12 -31 22
-34 22 -3 0 -17 5 -33 11 -26 10 -27 12 -8 19 32 13 77 11 135 -6z m-187 -40
l47 -16 0 -61 c0 -34 -3 -73 -7 -86 -6 -22 -9 -23 -67 -18 -34 3 -82 13 -108
23 l-48 16 0 74 c0 68 2 75 23 84 27 11 95 4 160 -16z m477 -214 c89 -105 165
-190 170 -190 7 0 172 -203 178 -221 2 -5 -2 -9 -10 -9 -12 0 -508 587 -517
613 -9 25 29 -16 179 -193z m62 -118 c121 -147 228 -275 236 -285 8 -9 13 -20
10 -23 -4 -3 -50 47 -103 110 -53 64 -99 116 -102 116 -3 0 15 -25 41 -55 54
-65 127 -153 144 -176 9 -13 6 -21 -21 -47 l-33 -32 -58 70 c-32 39 -63 69
-69 67 -5 -1 -16 -12 -23 -23 -12 -17 -7 -27 41 -89 30 -38 55 -74 55 -79 0
-6 -12 -23 -27 -38 -15 -15 -22 -28 -16 -28 7 0 22 13 35 29 19 25 33 30 87
36 l64 7 -37 -45 c-42 -51 -52 -57 -106 -57 -33 0 -43 6 -78 48 -95 115 -472
626 -469 636 2 6 15 10 28 8 129 -17 149 -12 149 37 1 73 15 61 208 -171 40
-49 76 -88 79 -88 4 0 -3 10 -14 23 -52 58 -263 316 -263 322 0 15 33 -22 242
-273z m2445 263 l36 -15 -62 -31 c-113 -57 -233 -192 -315 -356 -42 -85 -29
-75 18 14 88 163 174 262 281 323 50 29 70 35 120 35 55 0 163 -30 151 -42 -2
-2 -14 1 -26 7 -12 7 -52 12 -90 12 -88 0 -159 -33 -246 -114 -178 -167 -311
-497 -355 -878 -19 -166 0 -452 42 -645 74 -334 252 -563 441 -566 48 -1 50
-2 23 -10 -16 -5 -46 -7 -65 -3 -19 4 -65 8 -102 9 -114 4 -217 68 -302 188
-55 79 -81 130 -122 242 -18 50 -33 85 -34 78 0 -23 59 -175 95 -240 93 -170
190 -257 320 -289 l50 -12 -51 -1 c-38 -1 -66 7 -110 29 -67 34 -68 34 -58 18
4 -7 3 -8 -5 -4 -6 4 -9 11 -7 15 3 4 -15 28 -40 52 -25 24 -59 63 -76 87 -71
103 -152 307 -179 454 -10 55 -15 64 -33 64 -14 -1 -22 6 -24 22 -4 27 24 31
31 4 3 -10 5 -7 6 10 1 23 -3 27 -21 25 -17 -1 -24 4 -26 21 -2 12 1 22 7 22
6 0 11 5 11 10 0 6 -7 10 -15 10 -8 0 -15 9 -15 20 0 13 7 20 20 20 18 0 20 6
19 58 -1 31 -3 49 -6 39 -6 -25 -37 -17 -41 11 -3 17 2 22 17 22 20 0 21 5 20
93 -1 50 -3 84 -6 75 -5 -20 -33 -25 -33 -5 0 22 18 40 34 34 13 -5 16 2 16
46 0 116 58 380 116 527 78 199 174 348 276 430 55 44 70 64 29 39 -21 -14
-37 -8 -26 11 3 5 23 10 43 9 20 0 62 8 92 20 66 24 127 27 177 6z m-573 -17
c10 -10 -2 -24 -56 -66 -37 -29 -68 -48 -68 -43 0 6 27 29 60 52 33 24 58 45
56 47 -8 8 -91 -56 -143 -110 -127 -131 -236 -360 -284 -593 -26 -128 -31 -80
-27 250 4 307 6 333 25 377 12 25 32 52 45 59 12 8 82 19 153 25 181 16 224
16 239 2z m-73 -114 c-39 -44 -76 -101 -112 -175 -196 -394 -252 -940 -144
-1389 38 -155 111 -331 163 -393 17 -19 10 -32 -12 -24 -26 10 -85 100 -86
130 0 17 -10 37 -25 51 -51 47 -119 296 -144 521 l-10 90 5 -90 c7 -140 55
-356 109 -487 4 -10 3 -18 -2 -18 -5 0 -21 32 -36 70 -160 412 -137 1045 52
1435 55 113 163 275 184 275 10 0 6 -6 -56 -86 -125 -163 -238 -509 -252 -774
l-4 -85 9 85 c42 369 149 657 311 834 62 68 106 95 50 30z m857 29 l113 -6
-51 -26 c-28 -15 -75 -48 -105 -74 -46 -41 -59 -47 -97 -47 -44 0 -44 -1 -83
-67 -39 -67 -43 -80 -49 -178 -2 -27 -12 -71 -24 -97 -53 -120 -97 -322 -114
-524 l-12 -142 25 -39 c21 -31 27 -55 32 -133 7 -96 24 -190 53 -288 25 -89
24 -54 -2 43 -23 85 -52 290 -43 299 2 2 34 2 72 -1 67 -6 67 -6 68 -37 0 -17
3 -25 6 -18 2 6 18 12 34 12 28 0 29 -2 30 -47 0 -27 4 -70 8 -96 7 -41 5 -49
-10 -57 -26 -15 -32 -12 -26 10 3 11 1 20 -4 20 -15 0 -10 47 6 54 23 8 18 29
-5 23 -13 -3 -20 0 -20 9 0 8 10 15 23 15 20 1 20 2 2 6 -11 3 -23 10 -27 17
-11 16 -10 -21 3 -108 11 -72 12 -75 32 -64 16 8 23 7 34 -8 7 -10 13 -26 13
-36 0 -26 -39 -23 -50 5 -5 12 -9 15 -9 8 -1 -25 50 -183 75 -233 13 -26 24
-49 24 -52 0 -3 -21 -6 -47 -8 -56 -4 -66 6 -125 117 -21 38 -38 66 -38 62 0
-11 49 -107 73 -140 15 -22 21 -50 24 -115 l4 -87 45 -45 c24 -25 44 -49 44
-53 0 -4 -31 -7 -70 -7 -107 0 -170 28 -256 114 -111 112 -185 279 -230 522
-27 142 -27 538 -1 674 71 370 184 621 339 755 90 77 106 80 316 68z m299 -27
c24 -12 24 -12 -29 -46 -29 -19 -66 -41 -82 -49 -16 -8 -61 -47 -99 -85 l-70
-70 -34 39 c-18 21 -33 42 -33 47 0 15 83 87 134 115 43 23 63 28 127 28 43 0
75 3 72 8 -2 4 -32 7 -67 7 -76 0 -153 -35 -233 -105 -51 -45 -73 -55 -73 -33
0 17 73 83 127 115 88 51 195 64 260 29z m373 -24 c0 -5 -13 -7 -29 -4 -49 7
-134 -25 -197 -73 -33 -26 -61 -52 -64 -58 -3 -7 -24 -37 -47 -67 -54 -72
-118 -200 -160 -324 -31 -91 -32 -101 -18 -122 16 -25 53 -41 64 -27 4 4 20
46 35 93 35 110 101 247 160 334 26 39 44 76 42 83 -3 7 -19 16 -36 20 -29 5
-30 7 -14 24 9 10 40 33 68 51 48 32 55 33 146 32 263 -2 392 -78 495 -289 84
-170 118 -361 119 -650 0 -185 -10 -272 -54 -445 -80 -314 -213 -529 -381
-616 -46 -24 -66 -28 -139 -29 -76 0 -91 3 -138 30 -138 76 -240 252 -293 507
-30 147 -38 449 -15 607 18 122 16 165 -3 56 -46 -262 -24 -609 54 -840 53
-161 161 -302 270 -351 30 -14 55 -27 55 -29 0 -4 -141 4 -164 10 -19 5 -19 5
-3 -5 26 -17 20 -31 -10 -24 -59 14 -114 44 -163 90 -47 44 -55 48 -103 47
l-52 0 48 4 c26 2 47 6 47 7 0 2 -16 30 -35 61 -19 32 -42 77 -50 100 -15 37
-19 41 -46 37 -38 -6 -99 6 -99 19 0 7 23 9 60 7 33 -1 60 -3 60 -3 -1 0 -9
29 -20 65 -10 36 -19 57 -19 47 -1 -16 -9 -18 -58 -15 -46 2 -59 7 -61 21 -3
15 5 17 59 17 l62 0 -7 33 c-41 193 -46 509 -11 723 l7 41 -66 8 c-81 8 -84
27 -5 36 l54 6 -47 1 c-26 1 -50 7 -54 13 -13 22 12 29 74 21 34 -5 62 -5 62
-2 0 4 -30 11 -66 15 -53 5 -65 10 -62 23 3 14 14 17 63 15 l60 -2 -54 10
c-30 5 -56 11 -58 12 -1 2 2 20 8 40 10 35 12 37 54 37 54 0 75 -8 75 -27 0
-13 -11 -15 -62 -10 -39 3 -56 2 -47 -4 8 -5 33 -9 57 -9 33 0 42 -4 43 -17 0
-10 7 4 15 30 8 27 13 54 10 60 -3 7 -5 6 -5 -3 -1 -12 -13 -14 -62 -12 -50 3
-60 7 -57 20 3 14 15 17 65 16 34 0 60 3 57 8 -3 4 -28 8 -55 8 -43 0 -50 3
-47 18 3 14 14 17 68 15 l65 -2 -60 10 c-33 6 -61 12 -63 13 -1 2 1 11 4 20 6
15 17 17 78 13 l71 -6 -65 11 c-75 12 -72 11 -65 30 5 12 16 13 63 5 31 -5 60
-14 64 -20 3 -6 13 6 21 26 62 148 188 296 299 352 60 30 81 35 139 35 38 0
69 -4 69 -8z m-747 -185 c-18 -23 -74 -127 -69 -127 3 0 21 29 41 65 20 36 40
65 45 65 8 0 60 -64 60 -74 0 -3 -16 -32 -35 -65 -19 -32 -35 -63 -35 -68 1
-4 8 4 16 20 16 29 21 32 43 18 12 -8 12 -15 -1 -47 -9 -22 -19 -38 -22 -36
-3 1 -15 2 -26 2 -14 0 -18 5 -14 18 3 9 -2 6 -10 -8 -8 -14 -15 -28 -16 -32
0 -8 21 -5 36 5 20 12 25 -22 9 -59 -12 -30 -18 -34 -37 -28 l-23 7 23 -19
c21 -17 22 -22 11 -52 -6 -18 -14 -31 -16 -28 -3 3 -16 1 -28 -4 -16 -6 -25
-5 -28 3 -2 7 -12 -23 -21 -65 -10 -43 -16 -83 -14 -89 2 -7 10 19 17 58 9 49
18 73 29 78 9 3 18 1 21 -6 2 -8 6 -7 13 2 6 9 8 -3 4 -36 -4 -30 -12 -53 -22
-58 -14 -8 -14 -11 -3 -18 10 -6 8 -9 -8 -9 -12 0 -24 6 -26 13 -3 7 -6 5 -6
-5 -1 -13 7 -18 25 -18 19 0 25 -4 21 -15 -3 -8 -11 -62 -18 -120 -12 -103
-12 -105 -38 -106 -25 -2 -25 -2 3 -6 28 -5 28 -5 22 -56 -9 -61 -8 -61 -35
-52 -28 9 -27 25 2 26 21 2 21 2 -2 6 l-24 5 7 121 c3 66 3 118 0 114 -4 -3
-9 -82 -13 -174 l-6 -168 -27 40 c-25 35 -28 49 -28 118 0 50 -4 76 -10 72
-14 -9 -100 5 -100 17 0 5 26 8 58 7 l57 -3 3 42 3 42 -55 0 c-43 0 -56 3 -56
15 0 17 5 17 71 6 l47 -8 6 51 c4 28 16 85 27 128 10 42 19 79 19 82 0 3 -25
6 -55 6 -34 0 -55 4 -55 11 0 8 20 10 60 7 44 -3 61 -1 65 10 10 28 4 32 -50
32 -42 0 -55 3 -55 15 0 17 5 17 72 6 l46 -8 23 67 c15 44 20 73 14 86 -4 10
-7 24 -7 29 1 6 -21 9 -54 7 -39 -3 -54 -1 -50 7 4 6 25 11 46 11 39 0 40 1
87 82 26 45 49 76 51 69 2 -6 0 -17 -5 -24z m478 -66 c-52 -77 -111 -197 -152
-312 -23 -64 -35 -87 -43 -79 -24 24 98 309 179 420 55 75 69 49 16 -29z
m-3024 -389 c67 -86 140 -178 163 -202 23 -25 4 1 -41 58 -45 56 -80 104 -78
106 2 2 18 6 35 8 28 3 39 -7 156 -147 147 -175 217 -253 218 -243 0 5 -29 39
-64 77 -50 56 -209 245 -248 297 -5 7 25 45 80 102 48 51 90 92 94 92 4 0 21
-21 39 -46 l31 -46 -40 7 c-37 6 -44 3 -77 -27 -48 -44 -57 -103 -27 -171 24
-54 59 -79 112 -81 61 -1 100 46 112 134 3 21 13 11 66 -70 34 -52 62 -97 62
-100 0 -3 -13 -18 -28 -35 -67 -71 -90 -105 -32 -47 34 34 65 62 68 62 9 0 63
-93 79 -134 6 -17 15 -30 20 -30 80 14 188 23 195 16 10 -10 -67 -122 -85
-122 -6 0 -29 17 -51 38 l-39 37 27 -37 c15 -20 23 -39 19 -41 -5 -3 -62 -14
-127 -23 l-118 -18 -67 70 c-36 38 -109 114 -160 169 -71 76 -78 82 -30 25 35
-41 106 -118 156 -171 71 -73 90 -98 81 -107 -7 -7 -17 -12 -24 -12 -18 0
-242 226 -246 248 -3 23 -140 195 -204 257 -54 53 -187 242 -179 255 15 24 38
2 152 -148z m-1017 109 c25 -12 54 -24 64 -26 52 -11 134 -143 156 -250 16
-75 7 -185 -20 -257 -22 -59 -77 -141 -90 -133 -4 2 -16 -5 -26 -16 -11 -12
-41 -33 -69 -47 -107 -54 -251 -23 -328 71 -53 64 -100 167 -78 167 6 0 11 -9
11 -20 0 -21 40 -52 74 -57 12 -2 76 -12 142 -23 67 -11 147 -20 180 -20 l58
0 -25 -28 c-13 -16 -3 -7 22 19 26 26 52 62 58 80 8 25 8 29 -2 21 -6 -6 -33
-8 -59 -5 l-48 6 0 102 c0 135 6 167 32 159 24 -7 68 3 68 16 0 5 -19 9 -42 9
-24 -1 -109 6 -190 15 -81 9 -163 16 -183 16 -19 0 -35 5 -35 10 0 14 114 12
255 -5 66 -8 134 -14 150 -14 50 2 -142 27 -270 35 -110 7 -118 8 -90 20 27
12 27 13 7 14 -20 0 -21 3 -12 20 6 11 34 33 63 50 59 34 57 40 -3 10 -21 -11
-52 -36 -67 -55 -15 -19 -33 -35 -40 -35 -7 0 -19 -12 -27 -27 -13 -25 -15
-25 -16 -7 0 32 74 128 126 163 26 17 63 33 83 37 20 3 41 7 46 9 22 9 83 -3
125 -24z m1408 -117 c18 -20 21 -33 17 -62 -12 -72 -15 -79 -41 -91 -34 -15
-70 6 -90 55 -18 42 -9 80 22 100 28 19 57 11 84 -23 11 -14 20 -21 20 -15 0
15 -59 62 -79 62 -21 0 -45 -18 -59 -45 -10 -17 -11 -18 -12 -2 0 9 10 27 21
38 28 28 85 20 117 -17z m-1560 -121 c50 -6 52 -7 36 -24 -10 -11 -12 -19 -6
-19 7 0 17 9 24 20 7 11 17 20 22 20 10 0 -1 -271 -12 -282 -13 -13 -263 44
-475 108 -9 3 -17 9 -17 13 0 5 36 0 81 -11 44 -10 85 -18 91 -16 5 2 -36 14
-91 26 l-101 23 0 48 c0 26 5 52 12 59 11 11 161 9 241 -3 15 -3 27 0 27 5 0
6 -32 10 -74 10 -40 0 -95 3 -122 7 l-49 8 45 6 c63 8 304 10 368 2z m162
-143 c0 -126 -1 -131 -22 -140 -18 -7 -8 -9 40 -9 39 -1 61 -5 57 -11 -3 -5
-35 -10 -70 -10 -48 0 -64 4 -69 16 -3 9 -6 76 -6 150 l0 134 35 0 35 0 0
-130z m2400 -550 c9 -53 64 -233 87 -287 3 -9 -6 -13 -30 -13 -19 0 -39 -6
-45 -13 -6 -7 -14 -52 -18 -100 -14 -171 -24 -83 -24 205 0 165 4 288 9 283 4
-6 14 -39 21 -75z m1431 -617 c53 -24 57 -28 37 -36 -57 -21 -177 24 -254 95
-43 40 -44 42 -44 103 l0 62 101 -98 c72 -71 117 -107 160 -126z m-3878 86
c34 -5 80 -8 102 -7 24 0 3 6 -55 14 l-95 13 85 -4 c47 -3 162 -12 255 -20 94
-8 189 -15 212 -15 23 0 45 -5 49 -11 4 -7 -22 -9 -87 -6 l-94 6 89 -11 c66
-8 94 -8 108 1 34 21 46 13 50 -35 l3 -46 -75 6 c-204 18 -551 57 -595 67 -37
9 -63 25 -102 62 -29 27 -53 53 -53 58 0 4 32 -9 71 -28 40 -19 98 -39 132
-44z m2493 42 c-11 -20 -15 -53 -14 -98 l1 -68 6 76 c7 83 29 129 61 129 31 0
33 -18 4 -43 -51 -44 -42 -187 12 -187 24 0 12 -35 -13 -38 -16 -2 -28 6 -43
30 -11 18 -20 26 -20 18 0 -9 6 -22 13 -29 10 -10 7 -12 -13 -9 -35 4 -60 58
-60 131 0 50 2 57 20 57 12 0 20 7 20 17 0 17 30 56 37 49 3 -2 -3 -18 -11
-35z m106 -21 c-3 -12 -1 -13 9 -2 22 21 29 13 13 -15 -16 -32 -18 -81 -5
-102 6 -10 8 0 4 27 -4 29 -1 49 10 65 14 22 19 23 64 15 26 -5 58 -9 70 -9
43 1 58 -69 24 -110 -17 -21 -21 -22 -36 -9 -13 11 -16 25 -13 62 3 29 1 45
-5 41 -5 -3 -7 -30 -5 -59 l5 -54 -36 6 c-20 4 -48 7 -63 7 -20 0 -30 7 -38
26 -9 24 -9 24 -4 -6 5 -30 3 -33 -20 -33 -16 0 -30 8 -37 21 -14 27 -7 112
11 134 16 20 56 15 52 -5z m703 -212 c10 -9 -9 -14 -259 -58 -126 -22 -252
-39 -280 -39 -47 1 -124 15 -101 18 6 1 121 21 258 44 228 39 366 52 382 35z"/>
<path d="M3958 2776 c-130 -35 -274 -179 -370 -371 -85 -168 -181 -529 -176
-660 1 -32 2 -34 4 -10 17 145 38 246 50 241 7 -3 16 -1 19 5 4 5 11 7 16 4 5
-4 9 -1 9 4 0 6 -10 10 -21 8 -12 -1 -24 4 -26 11 -3 7 3 12 14 12 14 0 15 2
4 9 -11 7 -9 24 12 99 15 50 39 122 54 161 25 66 28 69 51 60 31 -12 53 4 34
23 -10 10 -17 10 -33 -1 -18 -10 -20 -10 -17 1 3 7 18 16 34 19 23 5 24 7 7 8
-13 0 -23 5 -23 9 0 5 24 47 53 93 57 90 52 88 145 76 28 -3 52 -3 52 1 0 4
-12 8 -27 9 -15 0 -29 6 -31 12 -2 6 -15 11 -30 11 l-26 0 35 36 c18 20 47 45
63 55 26 16 31 16 52 3 15 -10 24 -12 29 -5 3 7 -2 11 -14 11 -11 0 -22 4 -26
9 -9 15 101 51 158 52 38 0 47 3 32 9 -27 12 -52 11 -107 -4z"/>
<path d="M4996 2535 c-173 -61 -325 -285 -406 -598 -52 -200 -63 -286 -63
-492 0 -222 22 -370 77 -515 43 -114 77 -172 143 -241 73 -76 154 -114 232
-106 108 9 221 86 301 203 35 50 103 184 97 190 -2 2 -24 -38 -50 -89 -107
-216 -285 -332 -434 -283 -63 21 -108 54 -155 114 -51 63 -48 68 8 14 61 -58
115 -82 187 -82 68 0 107 15 183 69 31 22 62 37 70 34 9 -3 14 1 14 12 0 14 3
15 15 5 11 -9 15 -9 15 -1 0 6 18 38 40 70 80 117 144 287 181 484 24 127 34
422 18 542 -10 77 -5 110 12 85 17 -24 1 79 -27 178 -73 258 -221 423 -378
422 -23 -1 -59 -7 -80 -15z m142 -77 c26 -12 52 -21 57 -19 6 1 7 -1 2 -5 -4
-4 8 -24 27 -43 188 -194 258 -686 160 -1131 -114 -514 -420 -749 -649 -498
-66 72 -109 154 -140 269 -35 130 -30 152 8 43 39 -109 83 -179 149 -239 108
-97 233 -83 354 40 64 66 140 213 175 339 23 83 23 84 46 69 40 -26 60 9 24
41 -11 10 -24 15 -30 11 -7 -4 -9 4 -6 22 51 289 23 604 -70 798 -19 39 -52
92 -75 118 -118 133 -246 136 -381 10 -27 -25 -49 -43 -49 -39 0 17 74 121
116 162 87 87 177 104 282 52z m185 -112 c29 -1 35 -7 64 -66 34 -68 79 -212
85 -270 3 -33 1 -35 -28 -37 -30 -1 -31 1 -43 60 -27 133 -81 255 -151 348
l-41 54 41 -44 c32 -35 48 -45 73 -45z m-270 0 c86 -31 157 -118 207 -255 40
-110 60 -225 67 -381 20 -475 -169 -903 -409 -927 -45 -4 -61 -1 -107 24 -30
15 -72 50 -95 76 l-41 49 30 21 c63 44 150 159 170 222 4 11 -8 -6 -26 -39
-40 -70 -110 -151 -150 -172 -28 -14 -29 -14 -50 28 -152 298 -123 816 64
1150 53 94 60 98 103 57 20 -19 49 -56 65 -84 16 -27 29 -45 29 -39 0 16 -58
105 -93 142 l-32 34 35 30 c82 69 158 90 233 64z m408 -559 c20 -222 -9 -484
-76 -682 -31 -93 -97 -227 -137 -278 -44 -56 -46 -37 -3 28 133 201 217 571
201 885 -4 69 -10 143 -13 165 -4 28 -2 37 5 30 6 -6 17 -72 23 -148z"/>
<path d="M4381 1187 c-1 -29 37 -215 47 -232 4 -5 8 -18 9 -29 8 -47 99 -200
159 -265 65 -71 100 -88 131 -66 16 12 11 19 -43 77 -58 62 -128 181 -153 259
-9 29 -18 38 -41 43 -17 3 -36 3 -44 0 -14 -5 -34 61 -55 191 -5 30 -9 39 -10
22z"/>
<path d="M2680 2758 c167 -11 196 -23 231 -96 l21 -43 -4 -912 c-4 -603 -3
-748 2 -427 4 267 8 678 9 913 1 364 -1 433 -14 464 -37 87 -66 100 -245 106
l-145 5 145 -10z"/>
<path d="M2268 2693 c62 -3 82 -7 82 -18 0 -8 43 -48 96 -90 53 -42 93 -79 90
-82 -3 -3 -47 28 -98 69 -96 77 -118 93 -118 84 0 -2 59 -50 130 -106 116 -90
159 -132 223 -220 17 -24 17 -24 0 9 -10 18 -44 62 -76 97 -32 35 -55 64 -49
64 10 0 106 -100 139 -145 13 -16 23 -27 23 -23 0 12 -88 116 -131 155 -22 20
-77 65 -122 100 -88 69 -95 78 -74 86 17 6 291 -211 335 -266 47 -58 80 -116
114 -200 16 -40 26 -58 23 -42 -10 49 -62 153 -109 220 -32 44 -87 96 -195
181 -83 65 -163 122 -178 125 -16 4 -64 6 -108 6 l-80 -1 83 -3z"/>
<path d="M2125 2239 c-88 -16 -95 -19 -95 -37 0 -22 172 -257 199 -271 38 -21
186 -9 177 14 -6 17 -127 185 -133 185 -3 0 16 -30 42 -66 26 -36 45 -68 42
-70 -3 -3 -33 33 -67 80 -34 47 -64 86 -67 86 -3 0 -1 -6 4 -12 57 -75 135
-190 131 -194 -3 -2 -34 -7 -70 -11 l-64 -6 -87 119 c-47 65 -84 120 -82 123
3 2 22 8 42 12 34 8 33 8 -10 4 -36 -4 -48 -2 -44 8 4 13 59 25 117 26 35 1
32 -13 -5 -22 -17 -4 -16 -5 4 -6 14 0 34 -9 45 -18 19 -16 19 -16 7 -1 -7 10
-11 23 -9 29 2 6 16 -7 31 -30 15 -22 30 -41 33 -41 3 0 -10 21 -28 48 -18 26
-32 50 -30 55 2 9 -17 8 -83 -4z"/>
<path d="M1370 1822 c-116 -58 -145 -123 -100 -217 20 -41 34 -52 97 -73 39
-12 108 1 137 26 25 23 46 74 46 114 -1 45 -33 113 -64 133 -29 19 -93 28
-116 17z m41 -74 c22 -24 28 -28 24 -13 -5 14 -2 13 9 -5 20 -32 20 -110 1
-136 -17 -22 -19 -12 -5 19 9 20 9 20 -2 3 -44 -66 -90 -75 -132 -25 -20 23
-26 42 -26 75 0 104 70 148 131 82z"/>
<path d="M1528 1361 c-47 -30 -83 -72 -112 -129 -17 -33 -33 -135 -56 -366
-15 -139 -25 -156 -92 -156 -24 0 -48 4 -55 8 -9 5 -13 51 -16 147 l-3 140 -2
-147 c-2 -147 -2 -148 21 -153 13 -4 43 -5 67 -3 68 5 75 22 100 248 26 239
37 283 91 344 71 81 98 89 268 83 115 -4 127 -3 56 3 -179 16 -216 13 -267
-19z"/>
<path d="M743 1030 c-28 -12 -52 -49 -60 -93 -7 -45 27 -119 63 -135 50 -23
82 -13 117 38 37 53 8 162 -49 186 -38 16 -41 16 -71 4z m91 -33 c34 -34 42
-97 19 -144 -35 -73 -108 -68 -147 10 -49 101 53 208 128 134z"/>
<path d="M765 990 c-73 -28 -56 -160 20 -160 14 0 34 9 45 20 50 50 -3 163
-65 140z"/>
<path d="M1245 1008 c-50 -39 -20 -138 42 -138 47 0 74 68 44 116 -25 40 -54
48 -86 22z"/>
</g>
</svg>
